<svg viewBox="0 0 60 68" xmlns="http://www.w3.org/2000/svg" fill="none"><rect x="6" y="11" width="48" height="48" rx="5.5" stroke="currentColor" stroke-width="3"/><g fill="currentColor" stroke="currentColor" stroke-width="0.8" transform="translate(10.80,43.32) scale(0.03200,-0.03200)"><path d="M30 0V516H149V440H156Q168 476 190.5 502.0Q213 528 254 528Q329 528 346 440H352Q358 458 367.0 474.0Q376 490 389.0 502.0Q402 514 420.0 521.0Q438 528 462 528Q570 528 570 369V0H451V354Q451 390 438.5 404.5Q426 419 406 419Q387 419 373.5 406.5Q360 394 360 368V0H240V354Q240 390 228.5 404.5Q217 419 197 419Q177 419 163.0 406.5Q149 394 149 368V0Z"/><path transform="translate(600,0)" d="M59 740H207V422H214Q233 468 269.0 498.0Q305 528 367 528Q410 528 445.5 512.0Q481 496 506.5 463.0Q532 430 546.5 379.0Q561 328 561 258Q561 188 546.5 137.0Q532 86 506.5 53.0Q481 20 445.5 4.0Q410 -12 367 -12Q305 -12 269.0 17.5Q233 47 214 94H207V0H59ZM303 103Q353 103 380.0 133.5Q407 164 407 218V298Q407 352 380.0 382.5Q353 413 303 413Q264 413 235.5 394.0Q207 375 207 334V182Q207 141 235.5 122.0Q264 103 303 103Z"/></g></svg>
