<svg viewBox="0 0 488 120" width="488" height="120" xmlns="http://www.w3.org/2000/svg"><rect width="488" height="120" fill="#171A19"/><path fill="#F2EFE7" transform="translate(20.00,88.00) scale(0.06400,-0.06400)" d="M67 605H191V552H219Q239 621 310 621Q341 621 364.0 602.0Q387 583 398 548H427Q437 583 462.5 602.0Q488 621 525 621Q576 621 606.5 578.0Q637 535 637 461V0H520V412Q520 486 465 486Q410 486 410 412V0H293V412Q293 486 239 486Q184 486 184 412V0H67Z"/><path fill="#F2EFE7" transform="translate(64.80,88.00) scale(0.06400,-0.06400)" d="M61 605H193L343 158H383L519 605H641L431 -80Q410 -146 367.0 -181.5Q324 -217 266 -217Q185 -217 139.5 -173.0Q94 -129 87 -45H200Q211 -77 225.0 -91.0Q239 -105 262 -105Q283 -105 296.5 -91.0Q310 -77 321 -46L350 50H250Z"/><path fill="#F2EFE7" transform="translate(109.60,88.00) scale(0.06400,-0.06400)" d="M400 -16Q352 -16 313.0 3.5Q274 23 255 56H223V0H97V848H223V548H255Q274 582 313.0 601.5Q352 621 400 621Q474 621 529.0 582.0Q584 543 614.0 471.5Q644 400 644 302Q644 205 614.0 133.5Q584 62 529.0 23.0Q474 -16 400 -16ZM369 100Q441 100 480.5 153.0Q520 206 520 302Q520 398 480.5 451.5Q441 505 369 505Q297 505 257.0 451.5Q217 398 217 302Q217 206 257.0 153.0Q297 100 369 100Z"/><path fill="#F2EFE7" transform="translate(154.40,88.00) scale(0.06400,-0.06400)" d="M628 186Q603 91 533.0 37.0Q463 -17 364 -17Q234 -17 161.5 68.0Q89 153 89 307Q89 403 122.5 474.0Q156 545 217.0 583.0Q278 621 361 621Q480 621 546.0 540.0Q612 459 612 311Q612 298 611.5 285.5Q611 273 610 261H213Q229 95 365 95Q458 95 509 186ZM361 509Q301 509 263.5 471.5Q226 434 215 365H495Q476 509 361 509Z"/><path fill="#F2EFE7" transform="translate(199.20,88.00) scale(0.06400,-0.06400)" d="M106 0V605H232V556H264Q285 587 321.5 604.0Q358 621 402 621Q495 621 550.0 558.5Q605 496 605 389V0H479V357Q479 502 355 502Q232 502 232 357V0Z"/><path fill="#F2EFE7" transform="translate(244.00,88.00) scale(0.06400,-0.06400)" d="M365 -17Q281 -17 219.0 21.5Q157 60 123.0 131.0Q89 202 89 299Q89 398 124.0 470.5Q159 543 222.5 582.0Q286 621 373 621Q450 621 507.5 590.0Q565 559 597.5 501.5Q630 444 633 366H519Q506 432 467.5 469.0Q429 506 370 506Q296 506 254.5 451.5Q213 397 213 299Q213 204 253.0 151.5Q293 99 365 99Q417 99 453.5 130.5Q490 162 505 219H620Q614 148 580.5 94.5Q547 41 491.5 12.0Q436 -17 365 -17Z"/><path fill="#F2EFE7" transform="translate(288.80,88.00) scale(0.06400,-0.06400)" d="M106 0V848H232V556H264Q285 587 321.5 604.0Q358 621 402 621Q495 621 550.0 558.5Q605 496 605 389V0H479V357Q479 502 355 502Q232 502 232 357V0Z"/><rect x="348.26" y="72.51" width="15.49" height="15.49" rx="2.32" stroke="#4FA095" stroke-width="1.40" fill="none"/><path fill="#7EC8BA" transform="translate(378.40,88.00) scale(0.06400,-0.06400)" d="M139 605H446V116H627V0H139V116H320V489H139ZM375 689Q333 689 309.5 711.5Q286 734 286 774Q286 815 309.5 837.5Q333 860 375 860Q417 860 440.5 837.5Q464 815 464 774Q464 734 440.5 711.5Q417 689 375 689Z"/><path fill="#7EC8BA" transform="translate(423.20,88.00) scale(0.06400,-0.06400)" d="M221 186Q250 97 358 97Q415 97 445.5 116.5Q476 136 476 172Q476 224 381 237L303 248Q203 261 155.0 305.5Q107 350 107 429Q107 519 173.0 570.0Q239 621 355 621Q475 621 543.0 565.0Q611 509 616 406H500Q473 507 354 507Q294 507 262.0 487.5Q230 468 230 432Q230 381 325 367L403 357Q503 343 551.0 298.5Q599 254 599 176Q599 86 534.5 34.5Q470 -17 357 -17Q242 -17 176.0 36.0Q110 89 104 186Z"/></svg>
